<svg xmlns="http://www.w3.org/2000/svg" viewBox="0 0 1513.58 960.5"><defs><style>.cls-1{fill:#f7931e;}.cls-2{fill:#e1871c;}.cls-3{fill:#f7691e;}.cls-4{fill:#bb6949;}.cls-5{fill:#e1671c;}.cls-6{fill:#736357;}.cls-7{fill:#f15a24;}.cls-8{fill:#ed1c24;}.cls-9{fill:#534741;}.cls-10{fill:none;stroke:#000;stroke-miterlimit:10;stroke-width:2px;}</style></defs><title>pangolin</title><g id="Calque_1" data-name="Calque 1"><path class="cls-1" d="M1513.33,21.25q-.69,320.58-1.37,641.17h-.13l-5.5-9.17-33-20-25-26-5-19-19-39,12-10-32-30,62-55,22-27-6-26-14-45-19-21-13-29,22-19,15-34-19-36v-34l-53-28-57-26h58l63-6,16-8,12-26-19-26-67-37Z"/><path class="cls-2" d="M1512,662.42q-.07,39.42-.16,78.83h-1.47l-26,41-28,17-37,12-2,18-7,2,2,9-16,4-6-5-10-33-19-36-16-31,5-16-9-23h-27l94-38,27-42,13-13,25,26,33,20,5.5,9.17Z"/><path class="cls-1" d="M1511.8,741.25q-.08,32-.14,64h-.33l-27-23,26-41Z"/><path class="cls-1" d="M1511.66,805.25l-.33,155-138-2.71,0-1.29,2-51.93,0-1.07,15-64,6,5,16-4-2-9,7-2,2-18,37-12,28-17,27,23Z"/><path class="cls-3" d="M1474.33,63.25l19,26-12,26-16,8-63,6,10-26-17-34-76-48,79-8,9,13Z"/><polygon class="cls-4" points="1482.33 401.25 1488.33 427.25 1466.33 454.25 1404.33 509.25 1384.33 498.25 1374.33 498.25 1344.33 477.25 1366.33 455.25 1376.33 432.25 1382.33 426.25 1376.33 415.25 1377.33 393.25 1386.33 391.25 1384.33 377.25 1367.33 368.25 1360.33 357.25 1345.33 351.25 1352.33 327.25 1326.33 303.25 1359.33 277.25 1436.33 306.25 1449.33 335.25 1468.33 356.25 1482.33 401.25"/><polygon class="cls-3" points="1454.33 217.25 1473.33 253.25 1458.33 287.25 1436.33 306.25 1359.33 277.25 1364.33 240.25 1351.33 208.25 1346.33 183.25 1308.33 165.25 1308.33 148.25 1246.33 137.25 1344.33 129.25 1401.33 155.25 1454.33 183.25 1454.33 217.25"/><polygon class="cls-3" points="1443.33 588.25 1448.33 607.25 1435.33 620.25 1408.33 662.25 1314.33 700.25 1295.33 659.25 1268.33 628.25 1290.33 601.25 1308.33 590.25 1291.33 572.25 1297.33 559.25 1302.33 525.25 1288.33 502.25 1344.33 477.25 1374.33 498.25 1384.33 498.25 1404.33 509.25 1436.33 539.25 1424.33 549.25 1443.33 588.25"/><polygon class="cls-2" points="1395.33 69.25 1412.33 103.25 1402.33 129.25 1344.33 129.25 1360.33 97.25 1332.33 66.25 1271.33 21.25 1319.33 21.25 1395.33 69.25"/><polygon class="cls-5" points="1380.33 806.25 1390.33 839.25 1375.33 903.25 1375.29 904.32 1373.33 904.25 1349.33 901.25 1318.33 914.25 1284.33 904.25 1192.33 890.25 1178.33 854.25 1120.33 797.25 1250.33 795.25 1263.33 774.25 1295.33 774.25 1292.33 744.25 1314.33 700.25 1341.33 700.25 1350.33 723.25 1345.33 739.25 1361.33 770.25 1380.33 806.25"/><polygon class="cls-1" points="1384.33 377.25 1386.33 391.25 1377.33 393.25 1376.33 415.25 1382.33 426.25 1376.33 432.25 1366.33 455.25 1344.33 477.25 1288.33 502.25 1260.33 471.25 1220.33 471.25 1246.33 444.25 1248.33 396.25 1256.33 393.25 1258.33 380.25 1250.33 379.25 1236.17 355.41 1252.33 339.25 1255.33 307.25 1290.33 292.25 1326.33 303.25 1352.33 327.25 1345.33 351.25 1360.33 357.25 1367.33 368.25 1384.33 377.25"/><path class="cls-3" d="M1375.29,904.32l-2,51.93,0,1.29-219-4.29c-39.16-61.61-70.67-107-93-138-16.55-23-58-91-58-91l-11.78-24.47,20.78,1.47h29l49,1,5.24.61.52.06.27,0,0,.3-4,54,17,19,11,21,58,57,14,36,92,14,34,10,31-13,24,3Z"/><polygon class="cls-5" points="1351.33 208.25 1364.33 240.25 1359.33 277.25 1326.33 303.25 1290.33 292.25 1255.33 307.25 1252.33 339.25 1236.17 355.41 1231.33 347.25 1235.33 335.25 1201.33 302.25 1240.33 266.25 1257.33 229.25 1251.33 192.25 1221.33 163.25 1163.33 136.25 1246.33 137.25 1308.33 148.25 1308.33 165.25 1346.33 183.25 1351.33 208.25"/><polygon class="cls-5" points="1332.33 66.25 1360.33 97.25 1344.33 129.25 1246.33 137.25 1268.33 107.25 1268.33 81.25 1230.33 61.25 1231.33 42.25 1209.33 39.25 1173.33 21.25 1201.33 14.25 1271.33 14.25 1271.33 21.25 1332.33 66.25"/><polygon class="cls-1" points="1295.33 659.25 1314.33 700.25 1292.33 744.25 1295.33 774.25 1263.33 774.25 1250.33 795.25 1120.33 797.25 1109.33 776.25 1092.33 757.25 1096.33 703.25 1096.36 702.95 1150.33 709.25 1160.33 702.25 1171.33 688.25 1167.33 682.25 1168.33 667.25 1186.33 660.25 1190.33 648.25 1240.33 646.25 1268.33 628.25 1295.33 659.25"/><polygon class="cls-5" points="1291.33 572.25 1308.33 590.25 1290.33 601.25 1268.33 628.25 1240.33 646.25 1190.33 648.25 1179.33 614.25 1164.33 600.25 1156.33 588.25 1123.33 576.25 1141.33 561.25 1163.33 559.25 1169.33 486.25 1220.33 471.25 1260.33 471.25 1288.33 502.25 1302.33 525.25 1297.33 559.25 1291.33 572.25"/><polygon class="cls-2" points="1268.33 81.25 1268.33 107.25 1246.33 137.25 1163.33 136.25 1186.33 108.25 1177.33 77.25 1154.33 69.25 1153.33 55.25 1094.33 25.25 1167.33 9.25 1173.33 21.25 1209.33 39.25 1231.33 42.25 1230.33 61.25 1268.33 81.25"/><polygon class="cls-2" points="1236.17 355.41 1250.33 379.25 1258.33 380.25 1256.33 393.25 1248.33 396.25 1246.33 444.25 1220.33 471.25 1169.33 486.25 1117.33 422.25 1129.33 393.25 1102.33 392.25 1123.33 361.25 1096.33 340.25 1097.33 317.25 1088.33 292.25 1128.33 266.25 1201.33 302.25 1235.33 335.25 1231.33 347.25 1236.17 355.41"/><polygon class="cls-1" points="1251.33 192.25 1257.33 229.25 1240.33 266.25 1201.33 302.25 1128.33 266.25 1133.33 238.25 1125.33 195.25 1057.33 165.25 1086.33 139.25 1085.33 109.25 1059.33 83.25 973.33 71.25 1004.33 65.25 1004.33 52.25 1094.33 25.25 1153.33 55.25 1154.33 69.25 1177.33 77.25 1186.33 108.25 1163.33 136.25 1221.33 163.25 1251.33 192.25"/><polygon class="cls-2" points="1179.33 614.25 1190.33 648.25 1186.33 660.25 1168.33 667.25 1167.33 682.25 1171.33 688.25 1160.33 702.25 1150.33 709.25 1096.36 702.95 1096.09 702.92 1095.57 702.86 1090.33 702.25 1041.33 701.25 1012.33 701.25 991.55 699.78 977.33 670.25 964.86 647.51 965.33 647.25 985.33 649.25 986.33 635.25 1009.33 624.25 1054.33 613.25 1074.33 603.25 1095.33 601.25 1121.33 590.25 1123.33 576.25 1156.33 588.25 1164.33 600.25 1179.33 614.25"/><polygon class="cls-4" points="1117.33 422.25 1169.33 486.25 1163.33 559.25 1141.33 561.25 1123.33 576.25 1121.33 590.25 1095.33 601.25 1074.33 603.25 1054.33 613.25 1009.33 624.25 986.33 635.25 985.33 649.25 965.33 647.25 964.86 647.51 926.33 577.25 1054.33 521.25 1057.33 500.25 1072.33 485.25 1061.33 442.25 1096.33 421.25 1117.33 422.25"/><polygon class="cls-3" points="1125.33 195.25 1133.33 238.25 1128.33 266.25 1088.33 292.25 1097.33 317.25 1096.33 340.25 1123.33 361.25 1102.33 392.25 1096.33 421.25 1061.33 442.25 1072.33 485.25 1057.33 500.25 1054.33 521.25 926.33 577.25 899.33 559.25 880.33 502.25 881.33 477.25 949.33 453.25 971.33 435.25 966.33 374.25 993.33 363.25 995.33 327.25 1004.33 315.25 1003.33 303.25 982.66 263.88 983.33 264.25 1000.33 256.25 1013.33 239.25 1016.33 222.25 1009.33 208.25 1005.33 193.25 988.33 171.25 962.33 162.25 972.33 158.25 973.33 146.25 983.33 145.25 1057.33 165.25 1125.33 195.25"/><polygon class="cls-1" points="1129.33 393.25 1117.33 422.25 1096.33 421.25 1102.33 392.25 1129.33 393.25"/><polygon class="cls-4" points="1098.33 13.25 1094.33 25.25 1004.33 52.25 1004.33 65.25 973.33 71.25 973.33 23.25 904.33 10.25 979.33 0.25 990.33 7.25 1028.33 8.25 1098.33 13.25"/><polygon class="cls-5" points="1085.33 109.25 1086.33 139.25 1057.33 165.25 983.33 145.25 986.33 136.25 980.33 122.25 962.33 101.25 907.33 96.25 925.33 90.25 879.33 60.25 861.33 31.25 904.33 10.25 973.33 23.25 973.33 71.25 1059.33 83.25 1085.33 109.25"/><polygon class="cls-5" points="982.66 263.88 982.16 263.6 936.33 238.25 938.33 205.25 953.33 190.25 953.33 169.25 962.33 162.25 988.33 171.25 1005.33 193.25 1009.33 208.25 1016.33 222.25 1013.33 239.25 1000.33 256.25 983.33 264.25 982.66 263.88"/><polygon class="cls-2" points="1003.33 303.25 1004.33 315.25 995.33 327.25 993.33 363.25 966.33 374.25 958.33 368.25 907.33 369.25 868.33 371.25 860.33 366.25 870.33 339.25 878.33 308.25 900.33 277.25 865.33 225.25 893.33 215.25 936.33 238.25 982.16 263.6 982.66 263.88 1003.33 303.25"/><polygon class="cls-1" points="980.33 122.25 986.33 136.25 983.33 145.25 973.33 146.25 972.33 158.25 962.33 162.25 932.33 153.25 904.33 151.25 872.58 134.5 872.33 134.44 875.33 121.25 859.33 94.25 907.33 96.25 962.33 101.25 980.33 122.25"/><polygon class="cls-4" points="966.33 374.25 971.33 435.25 949.33 453.25 881.33 477.25 880.33 502.25 869.33 498.25 792.33 403.25 779.33 361.25 825.33 393.25 860.33 366.25 868.33 371.25 907.33 369.25 958.33 368.25 966.33 374.25"/><polygon class="cls-4" points="962.33 162.25 953.33 169.25 953.33 190.25 938.33 205.25 936.33 238.25 893.33 215.25 865.33 225.25 863.33 195.25 878.33 184.25 877.33 173.25 859.33 152.25 870.33 143.25 872.33 134.44 872.58 134.5 904.33 151.25 932.33 153.25 962.33 162.25"/><polygon class="cls-2" points="925.33 90.25 907.33 96.25 859.33 94.25 822.33 92.25 823.33 82.25 820.33 57.25 861.33 31.25 879.33 60.25 925.33 90.25"/><polygon class="cls-5" points="865.33 225.25 900.33 277.25 878.33 308.25 870.33 339.25 860.33 366.25 825.33 393.25 779.33 361.25 751.33 349.25 750.09 348.33 755.33 341.25 756.33 310.25 739.33 283.25 774.33 257.25 774.33 226.25 812.33 203.25 802.33 167.25 765.33 158.25 770.33 143.25 751.33 136.25 760.33 105.25 725.33 100.25 734.33 87.25 758.33 72.25 784.33 74.25 820.33 57.25 823.33 82.25 822.33 92.25 859.33 94.25 875.33 121.25 872.33 134.44 870.33 143.25 859.33 152.25 877.33 173.25 878.33 184.25 863.33 195.25 865.33 225.25"/><path class="cls-5" d="M880.33,502.25l19,57-25,43-18,38-30,39-51.27,29.57-.64.18-17.09-4.75-31-10,46-6,34-25,46-58,7-37s-4-31-6-34-18-51-18-51l-34-22-27-1-67,44,36-44,49-57,77,95Z"/><path class="cls-6" d="M701.33,609.25l-17-45,3-26,20-34,67-44,27,1,34,22s16,48,18,51,6,34,6,34l-7,37-46,58-34,25-46,6-28-44Z"/><polygon class="cls-3" points="802.33 167.25 812.33 203.25 774.33 226.25 774.33 257.25 739.33 283.25 707.33 269.25 672.33 280.25 670.33 242.25 648.33 217.25 705.33 202.25 712.33 174.25 683.33 134.25 662.33 108.25 646.33 99.25 661.33 94.25 702.33 80.25 734.33 87.25 725.33 100.25 760.33 105.25 751.33 136.25 770.33 143.25 765.33 158.25 802.33 167.25"/><polygon class="cls-3" points="779.33 361.25 792.33 403.25 743.33 460.25 707.33 504.25 687.33 505.25 670.33 495.25 685.33 445.25 700.33 422.25 700.33 395.25 706.33 392.25 735.33 368.25 750.09 348.33 751.33 349.25 779.33 361.25"/><path class="cls-7" d="M774.42,709l-26.09,7.25-68-6-225,22-94,3-50,12-37,3-44,15h-119l38-30,25-24-6-50-51-33-40-24-37.8-13.93.23-.33s63.86-41.61,71.57-49.74c2.81-3,5.17-5.82,5.17-5.82,4.35-5.45,7-10.5,12.83-19.18a185.24,185.24,0,0,1,22-27.52l.9.35,36.12,39.17,15-10.8,10-7.2,47,36,25-2,15-25,28,14,30-7,77-21,35,5,51-28,91-2,27,26,31-10,17,10,20-1-20,34-3,26,17,45-3,41,28,44,31,10ZM521.83,677.25c51.64,0,106.5-35.71,106.5-81s-56.36-58-108-58-81,14.71-81,60S470.19,677.25,521.83,677.25Z"/><polygon class="cls-2" points="739.33 283.25 756.33 310.25 755.33 341.25 750.09 348.33 735.33 368.25 706.33 392.25 700.33 395.25 700.33 422.25 685.33 445.25 670.33 495.25 639.33 505.25 612.33 479.25 622.33 444.25 641.33 410.25 661.33 383.25 629.33 334.25 649.33 306.25 672.33 280.25 707.33 269.25 739.33 283.25"/><polygon class="cls-2" points="683.33 134.25 712.33 174.25 705.33 202.25 648.33 217.25 672.33 185.25 650.33 160.25 610.33 155.25 624.33 146.25 613.33 125.25 565.33 116.25 592.33 107.25 619.33 99.25 646.33 99.25 662.33 108.25 683.33 134.25"/><polygon class="cls-1" points="650.33 160.25 672.33 185.25 648.33 217.25 670.33 242.25 672.33 280.25 649.33 306.25 629.33 334.25 661.33 383.25 641.33 410.25 622.33 444.25 612.33 479.25 521.33 481.25 529.33 446.25 542.33 423.25 555.33 393.25 555.33 363.25 584.33 324.25 566.33 267.25 547.33 261.25 571.33 226.25 570.33 200.25 541.33 185.25 551.33 177.25 548.33 156.25 494.33 155.29 494.33 155.25 541.33 118.25 565.33 116.25 613.33 125.25 624.33 146.25 610.33 155.25 650.33 160.25"/><path class="cls-8" d="M628.33,596.25c0,45.29-54.86,81-106.5,81s-82.5-33.71-82.5-79,29.36-60,81-60S628.33,551,628.33,596.25Zm-54,6c0-21.54-22.21-28-49-28s-40.5,6.92-49,30c-7,19,25,28,47,33C549.45,643.19,574.33,623.79,574.33,602.25Z"/><polygon class="cls-4" points="494.33 155.29 548.33 156.25 551.33 177.25 541.33 185.25 570.33 200.25 571.33 226.25 547.33 261.25 566.33 267.25 584.33 324.25 555.33 363.25 555.33 393.25 542.33 423.25 529.33 446.25 521.33 481.25 470.33 509.25 435.33 504.25 454.33 431.25 476.33 387.25 483.33 363.25 470.33 370.25 455.33 337.25 477.33 304.25 472.33 287.25 470.33 253.25 454.33 236.25 464.33 196.25 438.33 179.25 438.14 179.03 480.33 143.25 494.33 155.25 494.33 155.29"/><path d="M525.33,574.25c26.79,0,49,6.46,49,28s-24.88,40.94-51,35c-22-5-54-14-47-33C484.83,581.17,498.54,574.25,525.33,574.25Z"/><polygon class="cls-5" points="483.33 363.25 476.33 387.25 454.33 431.25 435.33 504.25 358.33 525.25 381.33 415.25 360.33 388.25 404.33 317.25 389.33 305.25 354.33 318.25 374.33 286.25 370.33 263.25 354.33 263.25 362.33 254.25 355.68 245.1 401.33 210.25 438.14 179.03 438.33 179.25 464.33 196.25 454.33 236.25 470.33 253.25 472.33 287.25 477.33 304.25 455.33 337.25 470.33 370.25 483.33 363.25"/><path class="cls-3" d="M404.33,317.25l-44,71,21,27-23,110-30,7-28-14-15,25,3-13-12-62-7-15,4-32,19-9,2-16,21-57-30,1,.92-37.91c7.54-7.67,14.94-14.69,22.08-21.09l47.35-36.15,6.65,9.15-8,9h16l4,23-20,32,35-13Z"/><path class="cls-2" d="M315.33,339.25l-21,57-2,16-19,9-4,32,7,15,12,62-3,13-25,2-47-36-10,7.2-.5-.7-2.08-16.3-37.82-19.7-2.61-1.1a209,209,0,0,0,18-20.4c17.27-22.29,10.69-22.12,36-63a567.56,567.56,0,0,1,44-62c9.37-11.3,18.75-21.58,27.92-30.91l-.92,37.91Z"/><path class="cls-1" d="M202.83,515.75l.5.7-15,10.8-36.12-39.17-.9-.35c3-3.12,6-6,9-9.08l2.61,1.1,37.82,19.7Z"/><path class="cls-9" d="M168.33,661.25l6,50-25,24-38,30-72-20-37-31s-1.94-53.74-2-54c-2-9.41,35.94-65.16,39.2-69.93l37.8,13.93,40,24Zm-74,46,12-12-17-9-22-1-3,10,10,8,8,8Z"/><polygon points="106.33 695.25 94.33 707.25 82.33 711.25 74.33 703.25 64.33 695.25 67.33 685.25 89.33 686.25 106.33 695.25"/><polyline class="cls-10" points="753.33 610.25 745.33 626.25 764.33 630.25 789.33 614.25 794.33 592.25 775.33 560.25 751.33 554.25 721.33 583.25 701.33 609.25 698.33 650.25 726.33 694.25 757.33 704.25 774.42 709 775.33 709.25"/></g></svg>